<?xml version="1.0" encoding="iso-8859-1"?>
<!-- Generator: Adobe Illustrator 16.0.0, SVG Export Plug-In . SVG Version: 6.00 Build 0)  -->
<!DOCTYPE svg PUBLIC "-//W3C//DTD SVG 1.1//EN" "http://www.w3.org/Graphics/SVG/1.1/DTD/svg11.dtd">
<svg version="1.1" id="Layer_1" xmlns="http://www.w3.org/2000/svg" xmlns:xlink="http://www.w3.org/1999/xlink" x="0px" y="0px"
	 width="31.47px" height="19.322px" viewBox="0 0 31.47 19.322" style="enable-background:new 0 0 31.47 19.322;"
	 xml:space="preserve">
<path d="M0,0v19.322h31.47V0H0z M30.222,16.324c-3.192-0.277-5.707-2.961-5.707-6.225s2.515-5.947,5.707-6.224V16.324z
	 M15.255,11.928c-1.048-0.221-1.839-1.152-1.839-2.267s0.791-2.046,1.839-2.268V11.928z M16.215,7.395
	c1.048,0.222,1.838,1.153,1.838,2.267s-0.79,2.045-1.838,2.267V7.395z M1.248,3.489c3.001,0.456,5.309,3.046,5.309,6.172
	s-2.308,5.715-5.309,6.172V3.489z M1.248,17.088c3.689-0.467,6.557-3.612,6.557-7.427s-2.867-6.96-6.557-7.427V1.248h14.007v5.184
	c-1.579,0.234-2.799,1.586-2.799,3.229s1.22,2.996,2.799,3.229v5.184H1.248V17.088z M16.215,18.074v-5.184
	c1.578-0.235,2.797-1.588,2.797-3.229c0-1.643-1.219-2.995-2.797-3.229V1.248h14.007v1.38c-3.881,0.28-6.955,3.521-6.955,7.472
	s3.074,7.191,6.955,7.473v0.502H16.215z"/>
<g>
</g>
<g>
</g>
<g>
</g>
<g>
</g>
<g>
</g>
<g>
</g>
<g>
</g>
<g>
</g>
<g>
</g>
<g>
</g>
<g>
</g>
<g>
</g>
<g>
</g>
<g>
</g>
<g>
</g>
</svg>
